<svg xmlns:xlink="http://www.w3.org/1999/xlink" viewBox="0 0 1142.98 1142.98" style="shape-rendering:geometricPrecision; text-rendering:geometricPrecision; image-rendering:optimizeQuality; fill-rule:evenodd; clip-rule:evenodd" version="1.1" height="11.4298mm" width="11.4298mm" xml:space="preserve" xmlns="http://www.w3.org/2000/svg">
 <defs>
  <style type="text/css">
   
    .fil0 {fill:none}
    .fil2 {fill:#27A0B0}
    .fil3 {fill:white}
    .fil1 {fill:url(#id0)}
   
  </style>
  <linearGradient y2="571.49" x2="1130.29" y1="571.49" x1="12.69" gradientUnits="userSpaceOnUse" id="id0">
   <stop style="stop-opacity:1; stop-color:#26C5FF" offset="0"></stop>
   <stop style="stop-opacity:1; stop-color:#00F1C5" offset="1"></stop>
  </linearGradient>
 </defs>
 <g id="Layer_x0020_1">
  <metadata id="CorelCorpID_0Corel-Layer"></metadata>
  <rect height="1143" width="1143" y="-0.01" x="-0.01" class="fil0"></rect>
  <path d="M571.49 12.69c308.64,0 558.8,250.18 558.8,558.8 0,308.62 -250.16,558.8 -558.8,558.8 -308.62,0 -558.8,-250.18 -558.8,-558.8 0,-308.62 250.18,-558.8 558.8,-558.8z" class="fil1"></path>
  <g id="_2519349394832">
   <path d="M390.01 333.13l386.65 0c-1.68,6.32 -70.65,96.79 -74.29,101.64l-74.57 101.36c-17.22,-0.39 -23.07,-9.67 -65.43,-3.57 -7.82,1.13 -14.21,3.57 -23.5,3.57 -1.36,-5.1 -4.87,-8.46 -8.11,-13.16 -21.42,-31 -133.36,-175.87 -140.75,-189.84zm-203 -83.13l0 131.46c0,9.56 7.85,17.4 17.4,17.4 91.86,0 83.13,9.17 83.13,-59.93l161.56 265.7c21.38,35.71 17.96,24.54 26.45,64.41 1.58,7.38 4.14,16.71 5.56,25.45 3.26,19.98 -10.96,25.72 -22.03,36.38 -22.19,21.35 -79.74,70.68 -91.95,89.77 -9.75,15.24 -16.54,81.44 -19.31,104.42 -2.76,22.87 -6.15,35.55 -6.15,59.59 0,34.72 57.05,56.66 90.01,26.2 10.13,-9.37 11.63,-19.18 15.53,-34.73 6.72,-26.79 13.85,-51.34 20.52,-78.08 8.57,-34.39 11.92,-31.48 45.22,-53.37 15.35,-10.1 50.64,-34.02 66.52,-34.02 28.65,0 44.03,15.28 73.37,32.96 30.7,18.49 38.37,20.83 46.49,54.04 6.44,26.33 14.47,53.8 20.88,79.66 4.27,17.25 4.75,23.32 16.29,33.97 24.71,22.82 68.98,16.26 83.39,-8.53 10.23,-17.59 5.21,-32.96 2.07,-55.67 -2.93,-21.24 -11.99,-103.45 -17.03,-116.36 -9.63,-24.7 -32.1,-38.84 -46.19,-52.41 -6.98,-6.72 -9.96,-10.6 -17.99,-16.81 -6.88,-5.31 -10.56,-10.4 -16.75,-16.12l-18.38 -16.42c-18.99,-19.27 -24.52,-9.48 -17.75,-41.9 12.31,-59.01 11.54,-49.79 38.42,-94.98l51.16 -84.17c13.87,-21.1 94.72,-159.05 101.68,-167.05 0,67.01 -8.14,58 83.13,58 9.55,0 17.4,-7.84 17.4,-17.4l0 -131.46c0,-9.55 -7.85,-17.4 -17.4,-17.4l-65.73 0c-23.66,0 -17.4,35.85 -17.4,65.73l-591.59 0c0,-77.59 10.31,-65.73 -83.13,-65.73 -9.55,0 -17.4,7.85 -17.4,17.4z" class="fil2"></path>
   <path d="M500.2 431.73c0,33.61 19.81,61.08 48.92,74.81 75.63,35.65 158.27,-57.68 95.3,-132.03 -43.06,-50.83 -144.22,-25.92 -144.22,57.22z" class="fil2"></path>
  </g>
  <g id="_2519349394496">
   <path d="M378.06 330.66l386.65 0c-1.68,6.32 -70.65,96.78 -74.29,101.64l-74.57 101.35c-17.22,-0.38 -23.07,-9.66 -65.43,-3.56 -7.82,1.12 -14.21,3.56 -23.5,3.56 -1.36,-5.1 -4.87,-8.46 -8.11,-13.15 -21.42,-31 -133.36,-175.87 -140.75,-189.84zm-203 -83.13l0 131.46c0,9.56 7.85,17.4 17.4,17.4 91.86,0 83.13,9.17 83.13,-59.93l161.56 265.7c21.38,35.71 17.96,24.53 26.46,64.41 1.57,7.38 4.13,16.71 5.56,25.44 3.25,19.99 -10.97,25.73 -22.04,36.38 -22.19,21.36 -79.74,70.69 -91.95,89.78 -9.75,15.24 -16.53,81.44 -19.31,104.42 -2.76,22.86 -6.14,35.55 -6.14,59.58 0,34.72 57.05,56.67 90,26.21 10.14,-9.37 11.63,-19.18 15.53,-34.73 6.72,-26.8 13.85,-51.34 20.52,-78.08 8.57,-34.4 11.92,-31.48 45.22,-53.38 15.35,-10.09 50.64,-34.01 66.52,-34.01 28.65,0 44.03,15.27 73.38,32.95 30.69,18.5 38.36,20.84 46.48,54.05 6.44,26.33 14.47,53.8 20.88,79.65 4.27,17.25 4.75,23.33 16.29,33.98 24.71,22.82 68.99,16.25 83.4,-8.54 10.22,-17.58 5.2,-32.95 2.06,-55.66 -2.93,-21.24 -11.99,-103.45 -17.03,-116.36 -9.63,-24.7 -32.1,-38.85 -46.19,-52.41 -6.98,-6.72 -9.96,-10.61 -17.99,-16.81 -6.88,-5.31 -10.55,-10.4 -16.74,-16.12l-18.39 -16.42c-18.99,-19.27 -24.51,-9.48 -17.75,-41.9 12.32,-59.01 11.54,-49.79 38.42,-94.98l51.16 -84.17c13.87,-21.1 94.72,-159.05 101.68,-167.05 0,67 -8.14,58 83.13,58 9.55,0 17.4,-7.84 17.4,-17.4l0 -131.46c0,-9.56 -7.85,-17.4 -17.4,-17.4l-65.73 0c-23.66,0 -17.4,35.84 -17.4,65.73l-591.59 0c0,-77.6 10.31,-65.73 -83.13,-65.73 -9.55,0 -17.4,7.84 -17.4,17.4z" class="fil3"></path>
   <path d="M488.25 429.26c0,33.61 19.81,61.08 48.93,74.8 75.62,35.65 158.27,-57.67 95.29,-132.02 -43.06,-50.83 -144.22,-25.92 -144.22,57.22z" class="fil3"></path>
  </g>
 </g>
</svg>
