<svg xmlns:xlink="http://www.w3.org/1999/xlink" viewBox="0 0 1142.98 1142.98" style="shape-rendering:geometricPrecision; text-rendering:geometricPrecision; image-rendering:optimizeQuality; fill-rule:evenodd; clip-rule:evenodd" version="1.1" height="11.4298mm" width="11.4298mm" xml:space="preserve" xmlns="http://www.w3.org/2000/svg">
 <defs>
  <style type="text/css">
   
    .fil0 {fill:none}
    .fil2 {fill:#27A0B0}
    .fil3 {fill:white}
    .fil1 {fill:url(#id0)}
   
  </style>
  <linearGradient y2="571.49" x2="1130.29" y1="571.49" x1="12.69" gradientUnits="userSpaceOnUse" id="id0">
   <stop style="stop-opacity:1; stop-color:#26C5FF" offset="0"></stop>
   <stop style="stop-opacity:1; stop-color:#00F1C5" offset="1"></stop>
  </linearGradient>
 </defs>
 <g id="Layer_x0020_1">
  <metadata id="CorelCorpID_0Corel-Layer"></metadata>
  <rect height="1143" width="1143" y="-0.01" x="-0.01" class="fil0"></rect>
  <path d="M571.49 12.69c308.64,0 558.8,250.18 558.8,558.8 0,308.62 -250.16,558.8 -558.8,558.8 -308.62,0 -558.8,-250.18 -558.8,-558.8 0,-308.62 250.18,-558.8 558.8,-558.8z" class="fil1"></path>
  <g id="_2519347970560">
   <path d="M499.91 577.84c0,26.98 3.06,47.95 24.06,68.84 4.13,4.1 5.72,4.64 9.99,8.23 60.03,50.44 147.49,105.13 214.39,149.9 15.86,10.61 31.37,19.43 46.59,29.9 23.13,15.92 64.3,-2.34 35.4,-46.33 -47.57,-72.41 -105.65,-164.81 -157.37,-232.41 -22.05,-28.82 -42.34,-56.45 -89.27,-56.45 -23.47,0 -44.84,11.05 -56.95,23.2 -14.1,14.13 -26.84,33.19 -26.84,55.12z" class="fil2"></path>
   <path d="M272.23 923.92c19.14,0 24.31,-10.65 35.07,-21.4l55.55 -55.56c15.71,-15.7 36.81,-32.06 9.12,-59.21 -7.27,-7.14 -10.71,-11.25 -17.21,-19.22 -30.81,-37.84 -62.49,-107.88 -62.49,-156.08l-173.04 0c0,18.29 2.65,35.85 5.19,51.28 13.18,79.92 58.74,180.01 114.56,235.15 10.24,10.12 19.38,25.04 33.25,25.04z" class="fil2"></path>
   <path d="M119.23 557.81l173.04 0c0,-24.84 14.47,-72.03 23.07,-89.86 9.79,-20.32 16.83,-35.73 31.04,-54.57 4.2,-5.57 9.65,-10.89 11.46,-17.68 -5.06,-7.56 -90.48,-91.37 -106.1,-107.01 -5.28,-5.29 -8.73,-12.45 -17.76,-13.2l-21.29 27.88c-7.76,9.5 -13.39,18.73 -20.24,28.94 -39.24,58.5 -73.22,152.98 -73.22,225.5z" class="fil2"></path>
   <path d="M612.84 291.88c47.64,3.96 90.18,20.54 128.09,43.13 13.24,7.88 22.25,16.38 34.02,24.26l107.01 -107.92c5.29,-5.28 12.45,-8.73 13.2,-17.76l-41.61 -31.24c-22.8,-16.92 -53.94,-33.72 -80.37,-45.31 -23.28,-10.21 -46.83,-18.45 -73.28,-25.08 -23.95,-6.01 -58.43,-13.12 -87.06,-13.12l0 173.04z" class="fil2"></path>
   <path d="M275.88 233.59c0.71,8.64 18.23,22.79 27.77,32.33l92.44 93.35c28.3,-18.95 30.97,-25.7 71.06,-43.69 23.61,-10.6 59.74,-21.1 91.05,-23.7l0 -173.04c-55.48,0 -149.12,27.34 -193.43,54.29 -21.8,13.27 -39.06,21.92 -60.02,38.33 -5.35,4.19 -24.59,20.99 -28.87,22.13z" class="fil2"></path>
   <path d="M813.2 395.7c1.92,7.21 15.08,21.66 22.45,34.02 21.27,35.73 42.2,86.77 43.12,128.09l173.04 0c0,-84.8 -42.22,-186.05 -92.63,-253.45 -3.92,-5.24 -7.39,-9.45 -11.18,-14.32 -3.82,-4.92 -9.14,-7.79 -10.94,-14.55 -8.64,0.71 -22.79,18.23 -32.33,27.77l-61.02 61.02c-8.13,8.13 -25.02,23.22 -30.51,31.42z" class="fil2"></path>
   <path d="M895.16 812.81c0,33.19 -18.88,58.75 -45.53,72.86 2.17,8.13 13.61,16.33 19.58,22.31 9.4,9.42 12.67,15.94 29.6,15.94 5.96,0 15.21,-5.34 18.74,-8.59l13.58 -15.55c6.07,-5.94 8.25,-9.36 13.68,-15.46 21.29,-23.9 43.47,-59.21 57.82,-87.9 26.33,-52.66 49.18,-123.43 49.18,-183.97l-173.04 0c-0.54,24.18 -11,60.44 -19.77,82.23 -11.56,28.71 -15.53,16.81 17.97,67.11 9.59,14.4 18.19,32.04 18.19,51.02z" class="fil2"></path>
  </g>
  <g id="_2519346792352">
   <path d="M485.88 570.83c0,26.98 3.06,47.95 24.06,68.84 4.13,4.1 5.72,4.64 9.99,8.23 60.03,50.44 147.49,105.13 214.39,149.9 15.86,10.61 31.37,19.43 46.59,29.9 23.13,15.92 64.3,-2.34 35.4,-46.33 -47.57,-72.41 -105.65,-164.81 -157.37,-232.41 -22.05,-28.82 -42.34,-56.45 -89.27,-56.45 -23.47,0 -44.84,11.05 -56.95,23.2 -14.1,14.13 -26.84,33.19 -26.84,55.12z" class="fil3"></path>
   <path d="M258.2 916.91c19.14,0 24.31,-10.65 35.07,-21.4l55.55 -55.56c15.71,-15.7 36.81,-32.06 9.12,-59.21 -7.27,-7.14 -10.71,-11.25 -17.21,-19.22 -30.81,-37.84 -62.49,-107.88 -62.49,-156.08l-173.04 0c0,18.29 2.65,35.85 5.19,51.28 13.18,79.92 58.74,180.01 114.56,235.15 10.24,10.12 19.38,25.04 33.25,25.04z" class="fil3"></path>
   <path d="M105.2 550.8l173.04 0c0,-24.84 14.47,-72.03 23.07,-89.86 9.79,-20.32 16.83,-35.73 31.04,-54.57 4.2,-5.57 9.65,-10.89 11.46,-17.68 -5.06,-7.56 -90.48,-91.37 -106.1,-107.01 -5.28,-5.29 -8.73,-12.45 -17.76,-13.2l-21.29 27.88c-7.76,9.5 -13.39,18.73 -20.24,28.94 -39.24,58.5 -73.22,152.98 -73.22,225.5z" class="fil3"></path>
   <path d="M598.81 284.87c47.64,3.96 90.18,20.54 128.09,43.13 13.24,7.88 22.25,16.38 34.02,24.26l107.01 -107.92c5.29,-5.28 12.45,-8.73 13.2,-17.76l-41.61 -31.24c-22.8,-16.92 -53.94,-33.72 -80.37,-45.31 -23.28,-10.21 -46.83,-18.45 -73.28,-25.08 -23.95,-6.01 -58.43,-13.12 -87.06,-13.12l0 173.04z" class="fil3"></path>
   <path d="M261.85 226.58c0.71,8.64 18.23,22.79 27.77,32.33l92.44 93.35c28.3,-18.95 30.97,-25.7 71.06,-43.69 23.61,-10.6 59.74,-21.1 91.05,-23.7l0 -173.04c-55.48,0 -149.12,27.34 -193.43,54.29 -21.8,13.27 -39.06,21.92 -60.02,38.33 -5.35,4.19 -24.59,20.99 -28.87,22.13z" class="fil3"></path>
   <path d="M799.17 388.69c1.92,7.21 15.08,21.66 22.45,34.02 21.27,35.73 42.2,86.77 43.12,128.09l173.04 0c0,-84.8 -42.22,-186.05 -92.63,-253.45 -3.92,-5.24 -7.39,-9.45 -11.18,-14.32 -3.82,-4.92 -9.14,-7.79 -10.94,-14.55 -8.64,0.71 -22.79,18.23 -32.33,27.77l-61.02 61.02c-8.13,8.13 -25.02,23.22 -30.51,31.42z" class="fil3"></path>
   <path d="M881.13 805.8c0,33.19 -18.88,58.75 -45.53,72.86 2.17,8.13 13.61,16.33 19.58,22.31 9.4,9.42 12.67,15.94 29.6,15.94 5.96,0 15.21,-5.34 18.74,-8.59l13.58 -15.55c6.07,-5.94 8.25,-9.36 13.68,-15.46 21.29,-23.9 43.47,-59.21 57.82,-87.9 26.33,-52.66 49.18,-123.43 49.18,-183.97l-173.04 0c-0.54,24.18 -11,60.44 -19.77,82.23 -11.56,28.71 -15.53,16.81 17.97,67.11 9.59,14.4 18.19,32.04 18.19,51.02z" class="fil3"></path>
  </g>
 </g>
</svg>
