<svg xmlns:xlink="http://www.w3.org/1999/xlink" viewBox="0 0 1142.98 1142.98" style="shape-rendering:geometricPrecision; text-rendering:geometricPrecision; image-rendering:optimizeQuality; fill-rule:evenodd; clip-rule:evenodd" version="1.1" height="11.4298mm" width="11.4298mm" xml:space="preserve" xmlns="http://www.w3.org/2000/svg">
 <defs>
  <style type="text/css">
   
    .fil0 {fill:none}
    .fil2 {fill:#27A0B0}
    .fil3 {fill:white}
    .fil1 {fill:url(#id0)}
   
  </style>
  <linearGradient y2="571.49" x2="1130.29" y1="571.49" x1="12.69" gradientUnits="userSpaceOnUse" id="id0">
   <stop style="stop-opacity:1; stop-color:#26C5FF" offset="0"></stop>
   <stop style="stop-opacity:1; stop-color:#00F1C5" offset="1"></stop>
  </linearGradient>
 </defs>
 <g id="Layer_x0020_1">
  <metadata id="CorelCorpID_0Corel-Layer"></metadata>
  <g id="_2519341741264">
   <rect height="1143" width="1143" y="-0.01" x="-0.01" class="fil0"></rect>
   <path d="M571.49 12.69c308.64,0 558.8,250.18 558.8,558.8 0,308.62 -250.16,558.8 -558.8,558.8 -308.62,0 -558.8,-250.18 -558.8,-558.8 0,-308.62 250.18,-558.8 558.8,-558.8z" class="fil1"></path>
   <g>
    <path d="M350.75 815.65c0,-17.17 11.05,-19.5 27.48,-4.06 4.7,4.43 9.89,7.76 15.23,11.79 20.3,15.29 44.97,27.17 69.21,35.29 7.07,2.36 12.26,3.75 19.66,5.56 27.18,6.64 8.14,25.28 5.34,25.28 -38.52,0 -136.92,-57.1 -136.92,-73.86zm172.95 -113.5c-10.92,0 -10.81,-8.31 -10.81,-14.41 0,-9.22 29.31,-20.89 38.58,-24.47 30.2,-11.65 63.62,-12.4 95.48,-5.09 41.35,9.48 14.2,27.76 13.67,27.76 -16.4,0 -54.73,-24.11 -117.12,7.19 -8.85,4.43 -12.97,9.02 -19.8,9.02zm-326.08 12.61c0,32.12 5.71,39.72 26.22,65.66 4.56,5.77 14.99,14.41 20.87,18.77l44.78 32.69c40.58,28.62 77.44,51.69 122.49,73.87 35.48,17.48 77.86,31.34 116.42,40.32 68.63,15.98 144.24,7.87 206.7,-23.51 14.57,-7.32 28.95,-18.63 39.01,-18.63 4.4,0 9.01,4.17 9.01,10.81 0,8.51 -3.48,7.2 -5.4,14.41 10.15,6.79 18.24,14.58 30.12,20.32 11.04,5.34 26.34,10.3 41.94,10.3l0 -389.13c-21.57,11.42 -38.62,26.62 -54.45,44.63 -3.69,4.2 -12.74,15.48 -14.01,20.23 1.91,0.51 37.11,22.57 37.16,34.23 0.02,4.09 -5.72,22.05 -23.24,5.89l-31.55 -24.29c-14.16,-9.54 -32.15,-20.3 -48.75,-26.92 -77.85,-31.07 -152.17,-37.36 -233.72,-6.18 -29.27,11.2 -20.71,7.48 -25.42,39.44 -3.12,21.15 -2.87,49.89 -16.77,49.89 -5.34,0 -8.99,-4.78 -12.61,-7.21 0,-7.94 2.29,-18.51 3.29,-25.53 11.95,-84.25 15.85,-162.87 14.79,-248.37l-3.77 -68.29c-0.43,-5.68 -1.56,-6.5 -1.7,-12.71 -22.77,0 -36.03,2.69 -36.03,-16.22 0,-13.94 20.8,-4.73 52.16,-9.08 7.01,-0.97 13.24,-2.97 19.9,-3.53 -1.45,-5.43 -6.98,-10.69 -10.27,-16.75 -8.62,-15.91 -6.87,-30.93 1.26,-46.3 -19.23,0 -68.46,4.53 -68.46,-9.01 0,-6.41 -1.54,-16.21 12.61,-16.21l81.07 0c10.12,0 14.42,6.21 14.42,14.41 0,10.76 -21.62,8.3 -21.62,39.63 0,10.37 11.7,16.55 23.15,30.9 3.86,4.84 8.74,9.12 13.28,13.74 22.37,22.75 47.03,-1.5 66.68,-18.99 11.06,-9.86 48.42,-39.02 53.12,-47.77 8.5,-15.85 7.2,-32.12 -1.99,-47.44 -6.99,-11.64 -57.77,-54.46 -70.94,-67.79 -23.24,-23.51 -38.73,-31.99 -74.3,-31.99 -9.87,0 -14.95,1.86 -21.32,5.7l-88.5 52.02c-30.29,17.99 -41.85,62.55 -41.53,97.18 0.42,45.9 -11.55,73.17 -27.26,115.07l-58.98 164.41c-13.61,40.88 -31.11,83.64 -44.13,123.41 -3.48,10.65 -13.73,33.58 -13.73,43.92z" class="fil2"></path>
    <path d="M651.61 437.33c-5.36,0 -8.67,2.5 -10.91,7.1 -2.26,4.64 -6.99,67.45 -8.49,78.14 -1.76,12.45 2.89,21.47 13.51,20.3 16.86,-1.86 12.22,-28.14 15.94,-54.06 1.52,-10.65 1.96,-21.08 2.8,-31.6 0.81,-10.01 1.44,-19.88 -12.85,-19.88z" class="fil2"></path>
    <path d="M516.49 444.53c0,14.35 20.64,52.13 27.79,69.5 5.64,13.71 7.15,18.78 17.25,18.78 27.66,0 0.85,-39.4 -10.04,-65.62l-12.21 -27.45c-7.4,-10.05 -22.79,-3.92 -22.79,4.79z" class="fil2"></path>
    <path d="M711.06 556.23c0,7.95 5.81,12.61 14.41,12.61 8.52,0 42.9,-54.75 48.93,-62.77 18.62,-24.77 -2.68,-29.76 -8.24,-28.26 -7.84,2.11 -21.13,24.82 -25.94,31.92 -5.5,8.12 -9.97,14.05 -15.46,22.37 -4.28,6.47 -13.7,16.07 -13.7,24.13z" class="fil2"></path>
   </g>
   <g>
    <path d="M342.36 799.1c0,-17.17 11.05,-19.5 27.48,-4.06 4.7,4.43 9.89,7.76 15.23,11.79 20.3,15.29 44.97,27.17 69.21,35.29 7.07,2.36 12.26,3.75 19.66,5.56 27.18,6.64 8.14,25.28 5.34,25.28 -38.52,0 -136.92,-57.1 -136.92,-73.86zm172.95 -113.5c-10.92,0 -10.81,-8.31 -10.81,-14.41 0,-9.22 29.31,-20.89 38.58,-24.47 30.2,-11.65 63.62,-12.4 95.48,-5.09 41.35,9.48 14.2,27.76 13.67,27.76 -16.4,0 -54.73,-24.11 -117.12,7.19 -8.85,4.43 -12.97,9.02 -19.8,9.02zm-326.08 12.61c0,32.12 5.71,39.72 26.22,65.66 4.56,5.77 14.99,14.41 20.87,18.77l44.78 32.69c40.58,28.62 77.44,51.69 122.49,73.87 35.48,17.48 77.86,31.34 116.42,40.32 68.63,15.98 144.24,7.87 206.7,-23.51 14.57,-7.32 28.95,-18.63 39.01,-18.63 4.4,0 9.01,4.17 9.01,10.81 0,8.51 -3.48,7.2 -5.4,14.41 10.15,6.79 18.24,14.58 30.12,20.32 11.04,5.34 26.34,10.3 41.94,10.3l0 -389.13c-21.57,11.42 -38.62,26.62 -54.45,44.63 -3.69,4.2 -12.74,15.48 -14.01,20.23 1.91,0.51 37.11,22.57 37.16,34.23 0.02,4.09 -5.72,22.05 -23.24,5.89l-31.55 -24.29c-14.16,-9.54 -32.15,-20.3 -48.75,-26.92 -77.85,-31.07 -152.17,-37.36 -233.72,-6.18 -29.27,11.2 -20.71,7.48 -25.42,39.44 -3.12,21.15 -2.87,49.89 -16.77,49.89 -5.34,0 -8.99,-4.78 -12.61,-7.21 0,-7.94 2.29,-18.51 3.29,-25.53 11.95,-84.25 15.85,-162.87 14.79,-248.37l-3.77 -68.29c-0.43,-5.68 -1.56,-6.5 -1.7,-12.71 -22.77,0 -36.03,2.69 -36.03,-16.22 0,-13.94 20.8,-4.73 52.16,-9.08 7.01,-0.97 13.24,-2.97 19.9,-3.53 -1.45,-5.43 -6.98,-10.69 -10.27,-16.75 -8.62,-15.91 -6.87,-30.93 1.26,-46.3 -19.23,0 -68.46,4.53 -68.46,-9.01 0,-6.41 -1.54,-16.21 12.61,-16.21l81.07 0c10.12,0 14.42,6.21 14.42,14.41 0,10.76 -21.62,8.3 -21.62,39.63 0,10.37 11.7,16.55 23.15,30.9 3.86,4.84 8.74,9.12 13.28,13.74 22.37,22.75 47.03,-1.5 66.68,-18.99 11.06,-9.86 48.42,-39.02 53.12,-47.77 8.5,-15.85 7.2,-32.12 -1.99,-47.44 -6.99,-11.64 -57.77,-54.46 -70.94,-67.79 -23.24,-23.51 -38.73,-31.99 -74.3,-31.99 -9.87,0 -14.95,1.86 -21.32,5.7l-88.5 52.02c-30.29,17.99 -41.85,62.55 -41.53,97.18 0.42,45.9 -11.55,73.17 -27.26,115.07l-58.98 164.41c-13.61,40.88 -31.11,83.64 -44.13,123.41 -3.48,10.65 -13.73,33.58 -13.73,43.92z" class="fil3"></path>
    <path d="M643.22 420.78c-5.36,0 -8.67,2.5 -10.91,7.1 -2.26,4.64 -6.99,67.45 -8.49,78.14 -1.76,12.45 2.89,21.47 13.51,20.3 16.86,-1.86 12.22,-28.14 15.94,-54.06 1.52,-10.65 1.96,-21.08 2.8,-31.6 0.81,-10.01 1.44,-19.88 -12.85,-19.88z" class="fil3"></path>
    <path d="M508.1 427.98c0,14.35 20.64,52.13 27.79,69.5 5.64,13.71 7.15,18.78 17.25,18.78 27.66,0 0.85,-39.4 -10.04,-65.62l-12.21 -27.45c-7.4,-10.05 -22.79,-3.92 -22.79,4.79z" class="fil3"></path>
    <path d="M702.67 539.68c0,7.95 5.81,12.61 14.41,12.61 8.52,0 42.9,-54.75 48.93,-62.77 18.62,-24.77 -2.68,-29.76 -8.24,-28.26 -7.84,2.11 -21.13,24.82 -25.94,31.92 -5.5,8.12 -9.97,14.05 -15.46,22.37 -4.28,6.47 -13.7,16.07 -13.7,24.13z" class="fil3"></path>
   </g>
  </g>
 </g>
</svg>
