<svg xmlns:xlink="http://www.w3.org/1999/xlink" viewBox="0 0 1142.98 1142.98" style="shape-rendering:geometricPrecision; text-rendering:geometricPrecision; image-rendering:optimizeQuality; fill-rule:evenodd; clip-rule:evenodd" version="1.1" height="11.4298mm" width="11.4298mm" xml:space="preserve" xmlns="http://www.w3.org/2000/svg">
 <defs>
  <style type="text/css">
   
    .fil0 {fill:none}
    .fil2 {fill:#27A0B0}
    .fil3 {fill:white}
    .fil1 {fill:url(#id0)}
   
  </style>
  <linearGradient y2="571.49" x2="1130.29" y1="571.49" x1="12.69" gradientUnits="userSpaceOnUse" id="id0">
   <stop style="stop-opacity:1; stop-color:#26C5FF" offset="0"></stop>
   <stop style="stop-opacity:1; stop-color:#00F1C5" offset="1"></stop>
  </linearGradient>
 </defs>
 <g id="Layer_x0020_1">
  <metadata id="CorelCorpID_0Corel-Layer"></metadata>
  <rect height="1143" width="1143" y="-0.01" x="-0.01" class="fil0"></rect>
  <path d="M571.49 12.69c308.64,0 558.8,250.18 558.8,558.8 0,308.62 -250.16,558.8 -558.8,558.8 -308.62,0 -558.8,-250.18 -558.8,-558.8 0,-308.62 250.18,-558.8 558.8,-558.8z" class="fil1"></path>
  <path d="M371.49 596.26c0,33.64 37.56,26 60.68,26 27.74,0 55.48,0 83.22,0l-90.41 242.47c-5.91,15.86 -11.79,32.67 -18.31,49.31 -7.07,18.07 -35.18,84.87 -35.18,103.52 0,14.09 12.64,22.54 29.48,22.54 14.6,0 25.75,-21.7 32.94,-31.21l190.21 -262.3c44.45,-59.03 91.21,-126.77 135.47,-187.01 9.52,-12.97 18.17,-25.18 27.74,-38.14 6.81,-9.21 52.28,-66.94 52.28,-77.76 0,-36.66 -28.98,-29.47 -55.48,-29.47 -26.59,0 -53.17,0 -79.75,0 18.31,-34.62 79.03,-133.98 102.61,-173.05 5.93,-9.82 32.62,-51.12 32.62,-59.27 0,-16.84 -8.45,-29.48 -22.54,-29.48l-319.01 0c-21.64,0 -24.65,29.23 -28.09,43l-84.96 341.55c-2.87,11.49 -13.52,49.5 -13.52,59.3z" class="fil2"></path>
  <path d="M360.86 594.32c0,33.65 37.56,26.01 60.68,26.01 27.74,0 55.48,0 83.22,0l-90.42 242.47c-5.9,15.86 -11.79,32.67 -18.3,49.31 -7.07,18.07 -35.18,84.87 -35.18,103.52 0,14.09 12.64,22.54 29.47,22.54 14.61,0 25.76,-21.7 32.94,-31.21l190.21 -262.3c44.46,-59.03 91.22,-126.77 135.47,-187.01 9.52,-12.97 18.17,-25.18 27.75,-38.14 6.8,-9.21 52.28,-66.94 52.28,-77.76 0,-36.66 -28.98,-29.47 -55.49,-29.47 -26.58,0 -53.16,0 -79.75,0 18.32,-34.62 79.04,-133.98 102.62,-173.05 5.93,-9.82 32.62,-51.12 32.62,-59.27 0,-16.84 -8.45,-29.48 -22.54,-29.48l-319.02 0c-21.63,0 -24.64,29.23 -28.09,43l-84.95 341.55c-2.87,11.49 -13.52,49.49 -13.52,59.29z" class="fil3"></path>
 </g>
</svg>
